<svg xmlns="http://www.w3.org/2000/svg" width="960" height="600" viewBox="0 0 960 600" role="img" aria-label="Step 1 · Comment to DM">
  <defs>
    <pattern id="hatch" width="14" height="14" patternUnits="userSpaceOnUse" patternTransform="rotate(-45)">
      <line x1="0" y1="0" x2="0" y2="14" stroke="#D9CFC3" stroke-width="1" opacity="0.45"/>
    </pattern>
  </defs>
  <rect width="960" height="600" fill="#F7F2EC"/>
  <rect width="960" height="600" fill="url(#hatch)" opacity="0.35"/>
  <rect x="24" y="24" width="912" height="552" rx="16" fill="#FFFCF8" stroke="#D9CFC3" stroke-width="1.5" stroke-dasharray="7 6"/>
  <!-- chrome bar -->
  <rect x="24" y="24" width="912" height="44" rx="16" fill="#EFE6DC"/>
  <rect x="24" y="52" width="912" height="16" fill="#EFE6DC"/>
  <circle cx="52" cy="46" r="5" fill="#D9CFC3"/>
  <circle cx="70" cy="46" r="5" fill="#D9CFC3"/>
  <circle cx="88" cy="46" r="5" fill="#9A3F2D" opacity="0.85"/>
  <text x="480" y="50" text-anchor="middle" fill="#8A7E72" font-family="system-ui,sans-serif" font-size="13" font-weight="600">Step 1 · Comment to DM</text>

  <rect x="48" y="108" width="280" height="372" rx="12" fill="#FFFCF8" stroke="#D9CFC3" stroke-width="1.5"/>
  <rect x="48" y="108" width="280" height="36" rx="12" fill="#EFE6DC"/>
  <rect x="48" y="132" width="280" height="12" fill="#EFE6DC"/>
  <text x="188" y="132" text-anchor="middle" fill="#8A7E72" font-family="system-ui,sans-serif" font-size="12" font-weight="600">Trigger</text>
  <rect x="68" y="164" width="240" height="28" rx="6" fill="#EFE6DC"/>
  <rect x="68" y="204" width="180" height="28" rx="6" fill="#EFE6DC"/>
  <rect x="68" y="244" width="200" height="28" rx="6" fill="#EFE6DC"/>
  <rect x="352" y="108" width="400" height="372" rx="12" fill="#FFFCF8" stroke="#D9CFC3" stroke-width="1.5"/>
  <rect x="352" y="108" width="400" height="36" rx="12" fill="#EFE6DC"/>
  <rect x="352" y="132" width="400" height="12" fill="#EFE6DC"/>
  <text x="552" y="132" text-anchor="middle" fill="#8A7E72" font-family="system-ui,sans-serif" font-size="12" font-weight="600">Actions</text>
  <rect x="372" y="164" width="360" height="40" rx="8" fill="#FFFFFF" stroke="#9A3F2D" stroke-width="1.5"/>
  <text x="552" y="188" text-anchor="middle" fill="#9A3F2D" font-family="system-ui,sans-serif" font-size="12" font-weight="600">Delay · 5–10 seconds</text>
  <rect x="372" y="216" width="360" height="40" rx="8" fill="#FFFFFF" stroke="#D9CFC3" stroke-width="1.5"/>
  <text x="552" y="240" text-anchor="middle" fill="#8A7E72" font-family="system-ui,sans-serif" font-size="12" font-weight="600">Send DM · varied replies</text>
  <rect x="372" y="268" width="360" height="40" rx="8" fill="#FFFFFF" stroke="#D9CFC3" stroke-width="1.5"/>
  <text x="552" y="292" text-anchor="middle" fill="#8A7E72" font-family="system-ui,sans-serif" font-size="12" font-weight="600">Auto-like comment</text>

  <rect x="320" y="522" width="320" height="36" rx="18" fill="#2C241C" opacity="0.88"/>
  <text x="480" y="546" text-anchor="middle" fill="#FFFCF8" font-family="system-ui,sans-serif" font-size="13" font-weight="600">Step 1 image or GIF goes here</text>
</svg>